<svg width="16" height="16" viewBox="0 0 16 16" fill="none" xmlns="http://www.w3.org/2000/svg">
<path d="M10.4856 1.78957H5.24813C2.97313 1.78957 1.61688 3.14582 1.61688 5.42082V10.6521C1.61688 12.9333 2.97313 14.2896 5.24813 14.2896H10.4794C12.7544 14.2896 14.1106 12.9333 14.1106 10.6583V5.42082C14.1169 3.14582 12.7606 1.78957 10.4856 1.78957ZM10.3669 8.50832H8.33563V10.5396C8.33563 10.7958 8.12313 11.0083 7.86688 11.0083C7.61063 11.0083 7.39813 10.7958 7.39813 10.5396V8.50832H5.36688C5.11063 8.50832 4.89813 8.29582 4.89813 8.03957C4.89813 7.78332 5.11063 7.57082 5.36688 7.57082H7.39813V5.53957C7.39813 5.28332 7.61063 5.07082 7.86688 5.07082C8.12313 5.07082 8.33563 5.28332 8.33563 5.53957V7.57082H10.3669C10.6231 7.57082 10.8356 7.78332 10.8356 8.03957C10.8356 8.29582 10.6231 8.50832 10.3669 8.50832Z" fill="#98A2B3"/>
</svg>
