<svg width="28" height="28" viewBox="0 0 28 28" fill="none" xmlns="http://www.w3.org/2000/svg">
<path d="M14.616 8.06001C15.3725 6.85125 15.9088 5.51796 16.2 4.12201C16.75 6.87201 18.4 9.51201 20.6 11.272C22.8 13.032 23.9 15.122 23.9 17.322C23.9063 18.8425 23.4609 20.3307 22.6204 21.5978C21.78 22.8649 20.5822 23.854 19.1789 24.4396C17.7757 25.0251 16.2301 25.1809 14.7383 24.887C13.2464 24.5932 11.8754 23.863 10.799 22.789M8.5 18.73C10.92 18.73 12.9 16.717 12.9 14.275C12.9 12.999 12.273 11.789 11.019 10.766C9.765 9.74304 8.819 8.22504 8.5 6.63004C8.181 8.22504 7.246 9.75404 5.981 10.766C4.716 11.778 4.1 13.01 4.1 14.275C4.1 16.717 6.08 18.73 8.5 18.73Z" stroke="white" stroke-width="2.2" stroke-linecap="round" stroke-linejoin="round"/>
</svg>
