<svg width="14" height="14" viewBox="0 0 14 14" fill="none" xmlns="http://www.w3.org/2000/svg">
<g clip-path="url(#clip0_28_152)">
<path d="M7.79939 1.58333V3.74999C7.79939 4.03731 7.91352 4.31286 8.11669 4.51603C8.31985 4.71919 8.5954 4.83333 8.88272 4.83333H11.0494M1.94941 7.48749L1.46191 7.27083M1.94941 8.67921L1.46191 8.89588M2.74943 12.1458C2.94594 12.3191 3.19862 12.4154 3.46064 12.4167H9.96605C10.2534 12.4167 10.5289 12.3025 10.7321 12.0994C10.9353 11.8962 11.0494 11.6206 11.0494 11.3333V4.29166L8.34105 1.58333H3.46605C3.17874 1.58333 2.90319 1.69746 2.70002 1.90063C2.49686 2.10379 2.38272 2.37934 2.38272 2.66666V4.02083M2.87022 6.56669L2.65355 6.07919M2.87022 9.60002L2.65355 10.0875M4.27854 6.07919L4.06187 6.56669M4.27854 10.0875L4.06187 9.60002M5.47025 7.27083L4.98275 7.48749M5.47025 8.89588L4.98275 8.67921M5.09105 8.08333C5.09105 8.98079 4.36352 9.70833 3.46605 9.70833C2.56859 9.70833 1.84105 8.98079 1.84105 8.08333C1.84105 7.18587 2.56859 6.45833 3.46605 6.45833C4.36352 6.45833 5.09105 7.18587 5.09105 8.08333Z" stroke="#98A2B3" stroke-width="1.25" stroke-linecap="round" stroke-linejoin="round"/>
</g>
<defs>
<clipPath id="clip0_28_152">
<rect width="13" height="13" fill="white" transform="translate(0.216064 0.5)"/>
</clipPath>
</defs>
</svg>
