<svg width="21" height="18" viewBox="0 0 21 18" fill="none" xmlns="http://www.w3.org/2000/svg">
<rect width="21" height="18" fill="#1E1E1E"/>
<g clip-path="url(#clip0_0_1)">
<rect width="800" height="480" transform="translate(-99 -66)" fill="#111111"/>
<rect x="-819" y="-65" width="1520" height="941" fill="url(#paint0_radial_0_1)" fill-opacity="0.03"/>
<g filter="url(#filter0_d_0_1)">
<rect x="-98.6799" y="-65.6799" width="799.36" height="479.36" stroke="#111515" stroke-width="0.640288" shape-rendering="crispEdges"/>
<path d="M-10 -5.04262C-10 -10.5419 -5.54193 -15 -0.0426273 -15H201.411C206.911 -15 211.369 -10.5419 211.369 -5.04263V60.0426C211.369 65.5419 206.911 70 201.411 70H-0.0426207C-5.54193 70 -10 65.5419 -10 60.0426V-5.04262Z" fill="#1E1E1E" fill-opacity="0.5"/>
<g filter="url(#filter1_d_0_1)">
<path d="M12.8571 5.10714L10.5 9.03571" stroke="#FF2A2A" stroke-linecap="round" stroke-linejoin="round"/>
<path d="M15.2143 9.03572C15.5377 8.25961 15.6644 7.41568 15.5833 6.57882C15.5022 5.74196 15.2158 4.93807 14.7494 4.2385C14.283 3.53893 13.6511 2.96532 12.9098 2.56859C12.1685 2.17186 11.3408 1.96429 10.5 1.96429C9.65922 1.96429 8.83144 2.17186 8.09015 2.56859C7.34886 2.96532 6.71698 3.53893 6.2506 4.2385C5.78422 4.93807 5.49776 5.74196 5.41667 6.57882C5.33557 7.41568 5.46233 8.25961 5.78571 9.03572H15.2143Z" stroke="#FF2A2A" stroke-width="1.5" stroke-linecap="round" stroke-linejoin="round"/>
</g>
<g filter="url(#filter2_d_0_1)">
<path d="M12.8571 5.10714L10.5 9.03571" stroke="#FF2A2A" stroke-linecap="round" stroke-linejoin="round"/>
<path d="M15.2143 9.03572C15.5377 8.25961 15.6644 7.41568 15.5833 6.57882C15.5022 5.74196 15.2158 4.93807 14.7494 4.2385C14.283 3.53893 13.6511 2.96532 12.9098 2.56859C12.1685 2.17186 11.3408 1.96429 10.5 1.96429C9.65922 1.96429 8.83144 2.17186 8.09015 2.56859C7.34886 2.96532 6.71698 3.53893 6.2506 4.2385C5.78422 4.93807 5.49776 5.74196 5.41667 6.57882C5.33557 7.41568 5.46233 8.25961 5.78571 9.03572H15.2143Z" stroke="#FF2A2A" stroke-width="1.5" stroke-linecap="round" stroke-linejoin="round"/>
</g>
</g>
</g>
<defs>
<filter id="filter0_d_0_1" x="-101.561" y="-66" width="805.122" height="485.122" filterUnits="userSpaceOnUse" color-interpolation-filters="sRGB">
<feFlood flood-opacity="0" result="BackgroundImageFix"/>
<feColorMatrix in="SourceAlpha" type="matrix" values="0 0 0 0 0 0 0 0 0 0 0 0 0 0 0 0 0 0 127 0" result="hardAlpha"/>
<feOffset dy="2.56115"/>
<feGaussianBlur stdDeviation="1.28058"/>
<feComposite in2="hardAlpha" operator="out"/>
<feColorMatrix type="matrix" values="0 0 0 0 0 0 0 0 0 0 0 0 0 0 0 0 0 0 0.25 0"/>
<feBlend mode="normal" in2="BackgroundImageFix" result="effect1_dropShadow_0_1"/>
<feBlend mode="normal" in="SourceGraphic" in2="effect1_dropShadow_0_1" result="shape"/>
</filter>
<filter id="filter1_d_0_1" x="0.642853" y="0" width="19.7143" height="19" filterUnits="userSpaceOnUse" color-interpolation-filters="sRGB">
<feFlood flood-opacity="0" result="BackgroundImageFix"/>
<feColorMatrix in="SourceAlpha" type="matrix" values="0 0 0 0 0 0 0 0 0 0 0 0 0 0 0 0 0 0 127 0" result="hardAlpha"/>
<feOffset dy="4"/>
<feGaussianBlur stdDeviation="2"/>
<feComposite in2="hardAlpha" operator="out"/>
<feColorMatrix type="matrix" values="0 0 0 0 1 0 0 0 0 0 0 0 0 0 0 0 0 0 0.25 0"/>
<feBlend mode="normal" in2="BackgroundImageFix" result="effect1_dropShadow_0_1"/>
<feBlend mode="normal" in="SourceGraphic" in2="effect1_dropShadow_0_1" result="shape"/>
</filter>
<filter id="filter2_d_0_1" x="0.642853" y="0" width="19.7143" height="19" filterUnits="userSpaceOnUse" color-interpolation-filters="sRGB">
<feFlood flood-opacity="0" result="BackgroundImageFix"/>
<feColorMatrix in="SourceAlpha" type="matrix" values="0 0 0 0 0 0 0 0 0 0 0 0 0 0 0 0 0 0 127 0" result="hardAlpha"/>
<feOffset dy="4"/>
<feGaussianBlur stdDeviation="2"/>
<feComposite in2="hardAlpha" operator="out"/>
<feColorMatrix type="matrix" values="0 0 0 0 1 0 0 0 0 0 0 0 0 0 0 0 0 0 0.25 0"/>
<feBlend mode="normal" in2="BackgroundImageFix" result="effect1_dropShadow_0_1"/>
<feBlend mode="normal" in="SourceGraphic" in2="effect1_dropShadow_0_1" result="shape"/>
</filter>
<radialGradient id="paint0_radial_0_1" cx="0" cy="0" r="1" gradientUnits="userSpaceOnUse" gradientTransform="translate(-290.5 795.5) rotate(-53.6732) scale(886.24 1421.08)">
<stop stop-color="#FF0000"/>
<stop offset="0.525863" stop-color="#FF0000"/>
<stop offset="1" stop-color="#1E1E1E"/>
</radialGradient>
<clipPath id="clip0_0_1">
<rect width="800" height="480" fill="white" transform="translate(-99 -66)"/>
</clipPath>
</defs>
</svg>
