<svg width="17" height="17" viewBox="0 0 17 17" fill="none" xmlns="http://www.w3.org/2000/svg">
<path d="M11.1602 1.87289H5.57353C3.14686 1.87289 1.7002 3.31956 1.7002 5.74623V11.3262C1.7002 13.7596 3.14686 15.2062 5.57353 15.2062H11.1535C13.5802 15.2062 15.0269 13.7596 15.0269 11.3329V5.74623C15.0335 3.31956 13.5869 1.87289 11.1602 1.87289ZM11.0335 9.03956H5.7002C5.42686 9.03956 5.2002 8.81289 5.2002 8.53956C5.2002 8.26623 5.42686 8.03956 5.7002 8.03956H11.0335C11.3069 8.03956 11.5335 8.26623 11.5335 8.53956C11.5335 8.81289 11.3069 9.03956 11.0335 9.03956Z" fill="#98A2B3"/>
</svg>
