<svg width="23" height="25" viewBox="0 0 23 25" fill="none" xmlns="http://www.w3.org/2000/svg">
<rect width="23" height="25" fill="#1E1E1E"/>
<g clip-path="url(#clip0_0_1)">
<rect width="800" height="480" transform="translate(-25 -433)" fill="#111111"/>
<rect x="-745" y="-432" width="1520" height="941" fill="url(#paint0_radial_0_1)" fill-opacity="0.03"/>
<g filter="url(#filter0_d_0_1)">
<rect x="-24.6799" y="-432.68" width="799.36" height="479.36" stroke="#111515" stroke-width="0.640288" shape-rendering="crispEdges"/>
</g>
<mask id="path-4-inside-1_0_1" fill="white">
<path d="M-25 -433H46V47H-25V-433Z"/>
</mask>
<path d="M45 -433V47H47V-433H45Z" fill="white" fill-opacity="0.08" mask="url(#path-4-inside-1_0_1)"/>
<rect width="71" height="480" transform="matrix(1 0 0 -1 -26 47)" fill="#111111" fill-opacity="0.55"/>
<mask id="path-7-outside-2_0_1" maskUnits="userSpaceOnUse" x="-25" y="-24" width="71" height="71" fill="black">
<rect fill="white" x="-25" y="-24" width="71" height="71"/>
<path d="M46 47H-25V-23H46V47Z"/>
</mask>
<path d="M-25 -22H46V-24H-25V-22Z" fill="white" fill-opacity="0.1" mask="url(#path-7-outside-2_0_1)"/>
<path d="M11.442 1.20001H10.958C10.3745 1.20001 9.81495 1.4318 9.40237 1.84438C8.98979 2.25696 8.758 2.81654 8.758 3.40001V3.59801C8.75761 3.98381 8.65576 4.36272 8.46269 4.69673C8.26962 5.03074 7.99211 5.30811 7.658 5.50101L7.185 5.77601C6.85056 5.9691 6.47118 6.07076 6.085 6.07076C5.69882 6.07076 5.31944 5.9691 4.985 5.77601L4.82 5.68801C4.31517 5.3968 3.71542 5.3178 3.1524 5.46835C2.58939 5.6189 2.10911 5.9867 1.817 6.49101L1.575 6.90901C1.28379 7.41384 1.20479 8.01359 1.35534 8.57661C1.50589 9.13963 1.87369 9.61991 2.378 9.91201L2.543 10.022C2.87551 10.214 3.15198 10.4896 3.34496 10.8215C3.53793 11.1534 3.64068 11.5301 3.643 11.914V12.475C3.64454 12.8627 3.54362 13.2439 3.35045 13.58C3.15728 13.9161 2.87873 14.1952 2.543 14.389L2.378 14.488C1.87369 14.7801 1.50589 15.2604 1.35534 15.8234C1.20479 16.3864 1.28379 16.9862 1.575 17.491L1.817 17.909C2.10911 18.4133 2.58939 18.7811 3.1524 18.9317C3.71542 19.0822 4.31517 19.0032 4.82 18.712L4.985 18.624C5.31944 18.4309 5.69882 18.3293 6.085 18.3293C6.47118 18.3293 6.85056 18.4309 7.185 18.624L7.658 18.899C7.99211 19.0919 8.26962 19.3693 8.46269 19.7033C8.65576 20.0373 8.75761 20.4162 8.758 20.802V21C8.758 21.5835 8.98979 22.1431 9.40237 22.5556C9.81495 22.9682 10.3745 23.2 10.958 23.2H11.442C12.0255 23.2 12.5851 22.9682 12.9976 22.5556C13.4102 22.1431 13.642 21.5835 13.642 21V20.802C13.6424 20.4162 13.7442 20.0373 13.9373 19.7033C14.1304 19.3693 14.4079 19.0919 14.742 18.899L15.215 18.624C15.5494 18.4309 15.9288 18.3293 16.315 18.3293C16.7012 18.3293 17.0806 18.4309 17.415 18.624L17.58 18.712C18.0848 19.0032 18.6846 19.0822 19.2476 18.9317C19.8106 18.7811 20.2909 18.4133 20.583 17.909L20.825 17.48C21.1162 16.9752 21.1952 16.3754 21.0447 15.8124C20.8941 15.2494 20.5263 14.7691 20.022 14.477L19.857 14.389C19.5213 14.1952 19.2427 13.9161 19.0496 13.58C18.8564 13.2439 18.7555 12.8627 18.757 12.475V11.925C18.7555 11.5373 18.8564 11.1562 19.0496 10.8201C19.2427 10.4839 19.5213 10.2048 19.857 10.011L20.022 9.91201C20.5263 9.61991 20.8941 9.13963 21.0447 8.57661C21.1952 8.01359 21.1162 7.41384 20.825 6.90901L20.583 6.49101C20.2909 5.9867 19.8106 5.6189 19.2476 5.46835C18.6846 5.3178 18.0848 5.3968 17.58 5.68801L17.415 5.77601C17.0806 5.9691 16.7012 6.07076 16.315 6.07076C15.9288 6.07076 15.5494 5.9691 15.215 5.77601L14.742 5.50101C14.4079 5.30811 14.1304 5.03074 13.9373 4.69673C13.7442 4.36272 13.6424 3.98381 13.642 3.59801V3.40001C13.642 2.81654 13.4102 2.25696 12.9976 1.84438C12.5851 1.4318 12.0255 1.20001 11.442 1.20001Z" stroke="#98A2B3" stroke-width="2" stroke-linecap="round" stroke-linejoin="round"/>
<path d="M11.2 15.5C13.0225 15.5 14.5 14.0226 14.5 12.2C14.5 10.3775 13.0225 8.90001 11.2 8.90001C9.37746 8.90001 7.9 10.3775 7.9 12.2C7.9 14.0226 9.37746 15.5 11.2 15.5Z" stroke="#98A2B3" stroke-width="2" stroke-linecap="round" stroke-linejoin="round"/>
</g>
<defs>
<filter id="filter0_d_0_1" x="-27.5612" y="-433" width="805.122" height="485.122" filterUnits="userSpaceOnUse" color-interpolation-filters="sRGB">
<feFlood flood-opacity="0" result="BackgroundImageFix"/>
<feColorMatrix in="SourceAlpha" type="matrix" values="0 0 0 0 0 0 0 0 0 0 0 0 0 0 0 0 0 0 127 0" result="hardAlpha"/>
<feOffset dy="2.56115"/>
<feGaussianBlur stdDeviation="1.28058"/>
<feComposite in2="hardAlpha" operator="out"/>
<feColorMatrix type="matrix" values="0 0 0 0 0 0 0 0 0 1 0 0 0 0 0.533333 0 0 0 1 0"/>
<feBlend mode="normal" in2="BackgroundImageFix" result="effect1_dropShadow_0_1"/>
<feBlend mode="normal" in="SourceGraphic" in2="effect1_dropShadow_0_1" result="shape"/>
</filter>
<radialGradient id="paint0_radial_0_1" cx="0" cy="0" r="1" gradientUnits="userSpaceOnUse" gradientTransform="translate(-216.5 428.5) rotate(-53.6732) scale(886.24 1421.08)">
<stop stop-color="#FF0000"/>
<stop offset="0.525863" stop-color="#FF0000"/>
<stop offset="1" stop-color="#1E1E1E"/>
</radialGradient>
<clipPath id="clip0_0_1">
<rect width="800" height="480" fill="white" transform="translate(-25 -433)"/>
</clipPath>
</defs>
</svg>
