<svg width="28" height="28" viewBox="0 0 28 28" fill="none" xmlns="http://www.w3.org/2000/svg">
<path d="M13.4775 3.4245C13.5257 3.3271 13.6002 3.24512 13.6925 3.1878C13.7848 3.13049 13.8913 3.10011 14 3.10011C14.1087 3.10011 14.2152 3.13049 14.3075 3.1878C14.3998 3.24512 14.4743 3.3271 14.5225 3.4245L17.0635 8.5714C17.2309 8.91016 17.478 9.20325 17.7836 9.42549C18.0892 9.64774 18.4441 9.79252 18.818 9.8474L24.5006 10.679C24.6083 10.6946 24.7094 10.74 24.7926 10.8101C24.8758 10.8802 24.9378 10.9722 24.9714 11.0757C25.0051 11.1791 25.0091 11.2899 24.983 11.3956C24.957 11.5012 24.9019 11.5974 24.824 11.6734L20.7144 15.6752C20.4434 15.9393 20.2406 16.2653 20.1235 16.6252C20.0064 16.985 19.9786 17.368 20.0423 17.741L21.0125 23.395C21.0315 23.5026 21.0199 23.6134 20.979 23.7147C20.938 23.8161 20.8694 23.9039 20.781 23.9681C20.6926 24.0323 20.5879 24.0704 20.4789 24.078C20.3698 24.0856 20.2609 24.0624 20.1644 24.011L15.0846 21.3402C14.7499 21.1644 14.3775 21.0726 13.9995 21.0726C13.6214 21.0726 13.249 21.1644 12.9143 21.3402L7.8356 24.011C7.73917 24.062 7.63034 24.085 7.5215 24.0773C7.41266 24.0695 7.30817 24.0314 7.21993 23.9672C7.13168 23.9031 7.06322 23.8154 7.02232 23.7142C6.98143 23.6131 6.96975 23.5025 6.9886 23.395L7.9577 17.7421C8.02172 17.3689 7.99398 16.9857 7.87689 16.6256C7.7598 16.2656 7.55687 15.9394 7.2856 15.6752L3.176 11.6745C3.09745 11.5986 3.04179 11.5022 3.01536 11.3963C2.98893 11.2903 2.99278 11.1791 3.02649 11.0752C3.06019 10.9713 3.1224 10.879 3.20601 10.8088C3.28962 10.7385 3.39128 10.6932 3.4994 10.6779L9.1809 9.8474C9.55518 9.79295 9.91063 9.64836 10.2166 9.42608C10.5227 9.2038 10.7701 8.91049 10.9376 8.5714L13.4775 3.4245Z" stroke="white" stroke-width="2.2" stroke-linecap="round" stroke-linejoin="round"/>
</svg>
