<svg width="28" height="28" viewBox="0 0 28 28" fill="none" xmlns="http://www.w3.org/2000/svg">
<path d="M2.075 21.05C2.075 18.476 4.176 16.375 6.75 16.375H7.3C7.751 16.375 8.125 16.749 8.125 17.2C8.125 17.651 7.751 18.025 7.3 18.025H6.75C5.078 18.025 3.725 19.378 3.725 21.05C3.725 22.722 5.078 24.075 6.75 24.075C8.422 24.075 9.775 22.722 9.775 21.05L9.775 2.9C9.775 2.449 10.149 2.075 10.6 2.075C11.051 2.075 11.425 2.449 11.425 2.9L11.425 21.05C11.425 23.624 9.324 25.725 6.75 25.725C4.176 25.725 2.075 23.624 2.075 21.05Z" fill="white"/>
<path d="M13.075 21.05L13.075 2.9C13.075 2.449 13.449 2.075 13.9 2.075C14.351 2.075 14.725 2.449 14.725 2.9V21.05C14.725 22.722 16.078 24.075 17.75 24.075C19.422 24.075 20.775 22.722 20.775 21.05C20.775 19.378 19.422 18.025 17.75 18.025H17.2C16.749 18.025 16.375 17.651 16.375 17.2C16.375 16.749 16.749 16.375 17.2 16.375H17.75C20.324 16.375 22.425 18.476 22.425 21.05C22.425 23.624 20.324 25.725 17.75 25.725C15.176 25.725 13.075 23.624 13.075 21.05Z" fill="white"/>
<path d="M16.375 10.941V2.9C16.375 2.449 16.749 2.075 17.2 2.075C17.651 2.075 18.025 2.449 18.025 2.9V10.941C18.025 12.118 18.982 13.075 20.159 13.075C21.336 13.075 22.293 12.118 22.293 10.941C22.293 9.76401 21.336 8.807 20.159 8.807H19.741C19.29 8.807 18.916 8.433 18.916 7.982C18.916 7.531 19.279 7.157 19.741 7.157H20.159C22.249 7.157 23.943 8.85101 23.943 10.941C23.943 13.031 22.249 14.725 20.159 14.725C18.069 14.725 16.375 13.031 16.375 10.941Z" fill="white"/>
</svg>
